HIERARCHY
ROOT Hips
{
	OFFSET 0.000000 83.214638 0.000000
	CHANNELS 6 Xposition Yposition Zposition Xrotation Yrotation Zrotation
	JOINT Pelvis
	{
		OFFSET 0.000000 0.000000 0.000000
		CHANNELS 3 Xrotation Yrotation Zrotation
		JOINT LeftUpLeg
		{
			OFFSET 8.479700 -4.795502 -0.379100
			CHANNELS 3 Xrotation Yrotation Zrotation
			JOINT LeftLeg
			{
				OFFSET 0.024144 -32.555107 0.112900
				CHANNELS 3 Xrotation Yrotation Zrotation
				JOINT LeftFoot
				{
					OFFSET -0.024144 -32.638630 -3.012600
					CHANNELS 3 Xrotation Yrotation Zrotation
					JOINT LeftToeBase
					{
						OFFSET 0.970200 -13.225400 11.864200
						CHANNELS 3 Xrotation Yrotation Zrotation
						End Site
						{
							OFFSET 0.000000 12.319262 0.000000
						}
					}
					JOINT LFootTongue
					{
						OFFSET 1.142400 -1.059800 6.665200
						CHANNELS 3 Xrotation Yrotation Zrotation
						End Site
						{
							OFFSET 0.000000 12.319262 0.000000
						}
					}
				}
				JOINT LeftPantLeg
				{
					OFFSET 0.918482 -16.533964 -2.284700
					CHANNELS 3 Xrotation Yrotation Zrotation
					End Site
					{
						OFFSET 0.350399 24.744368 0.000000
					}
				}
			}
		}
		JOINT RightUpLeg
		{
			OFFSET -8.479700 -4.795502 -0.379100
			CHANNELS 3 Xrotation Yrotation Zrotation
			JOINT RightLeg
			{
				OFFSET -0.023144 -32.555092 0.112900
				CHANNELS 3 Xrotation Yrotation Zrotation
				JOINT RightFoot
				{
					OFFSET 0.023144 -32.638641 -3.012700
					CHANNELS 3 Xrotation Yrotation Zrotation
					JOINT RightToeBase
					{
						OFFSET -0.970200 -13.225400 11.864200
						CHANNELS 3 Xrotation Yrotation Zrotation
						End Site
						{
							OFFSET 0.000000 12.319244 0.000000
						}
					}
					JOINT RFootTongue
					{
						OFFSET -1.142200 -1.059800 6.665200
						CHANNELS 3 Xrotation Yrotation Zrotation
						End Site
						{
							OFFSET 0.000000 12.319243 0.000000
						}
					}
				}
				JOINT RightPantLeg
				{
					OFFSET -0.919482 -16.533978 -2.284800
					CHANNELS 3 Xrotation Yrotation Zrotation
					End Site
					{
						OFFSET -0.350400 24.744419 0.000000
					}
				}
			}
		}
	}
	JOINT Spine
	{
		OFFSET 0.000000 7.722000 1.166200
		CHANNELS 3 Xrotation Yrotation Zrotation
		JOINT Spine1
		{
			OFFSET 0.000000 12.024101 0.248800
			CHANNELS 3 Xrotation Yrotation Zrotation
			JOINT Spine2
			{
				OFFSET 0.000000 11.502998 -0.491200
				CHANNELS 3 Xrotation Yrotation Zrotation
				JOINT Neck
				{
					OFFSET 0.000000 18.430702 -3.123100
					CHANNELS 3 Xrotation Yrotation Zrotation
					JOINT Head
					{
						OFFSET 0.000000 9.051102 1.034000
						CHANNELS 3 Xrotation Yrotation Zrotation
						JOINT HairB
						{
							OFFSET 0.208400 24.786102 24.822300
							CHANNELS 3 Xrotation Yrotation Zrotation
							End Site
							{
								OFFSET 0.000000 32.263779 0.000000
							}
						}
						JOINT HairA
						{
							OFFSET -7.081100 24.428299 23.196600
							CHANNELS 3 Xrotation Yrotation Zrotation
							End Site
							{
								OFFSET 0.000000 32.263779 0.000000
							}
						}
						JOINT Hat
						{
							OFFSET 16.728800 15.048294 -15.439601
							CHANNELS 3 Xrotation Yrotation Zrotation
							End Site
							{
								OFFSET 0.000000 32.263779 0.000000
							}
						}
					}
				}
				JOINT LeftShoulder
				{
					OFFSET 6.197800 13.665199 -4.064700
					CHANNELS 3 Xrotation Yrotation Zrotation
					JOINT LeftArm
					{
						OFFSET 7.778100 -0.187103 -1.709300
						CHANNELS 3 Xrotation Yrotation Zrotation
						JOINT LeftForeArm
						{
							OFFSET 22.049376 0.000000 0.000000
							CHANNELS 3 Xrotation Yrotation Zrotation
							JOINT LeftHand
							{
								OFFSET 23.009392 0.000000 0.000000
								CHANNELS 3 Xrotation Yrotation Zrotation
								JOINT LeftHandThumb1
								{
									OFFSET 3.507191 -2.063065 3.133727
									CHANNELS 3 Xrotation Yrotation Zrotation
									JOINT LeftHandThumb2
									{
										OFFSET 3.101337 -1.790558 1.790558
										CHANNELS 3 Xrotation Yrotation Zrotation
										JOINT LeftHandThumb3
										{
											OFFSET 3.058640 -1.765907 1.765906
											CHANNELS 3 Xrotation Yrotation Zrotation
											End Site
											{
												OFFSET -0.415260 3.926476 -0.049563
											}
										}
									}
								}
								JOINT LeftHandIndex1
								{
									OFFSET 11.334419 -0.901459 3.706815
									CHANNELS 3 Xrotation Yrotation Zrotation
									JOINT LeftHandIndex2
									{
										OFFSET 3.283112 0.000000 0.000000
										CHANNELS 3 Xrotation Yrotation Zrotation
										JOINT LeftHandIndex3
										{
											OFFSET 3.323853 0.000000 0.000000
											CHANNELS 3 Xrotation Yrotation Zrotation
											End Site
											{
												OFFSET -1.135597 3.097809 0.402452
											}
										}
									}
								}
								JOINT LeftHandMiddle1
								{
									OFFSET 11.335861 0.000000 0.000000
									CHANNELS 3 Xrotation Yrotation Zrotation
									JOINT LeftHandMiddle2
									{
										OFFSET 3.410492 0.000000 0.000000
										CHANNELS 3 Xrotation Yrotation Zrotation
										JOINT LeftHandMiddle3
										{
											OFFSET 3.312172 0.000000 0.000000
											CHANNELS 3 Xrotation Yrotation Zrotation
											End Site
											{
												OFFSET -1.150200 3.080154 0.400270
											}
										}
									}
								}
								JOINT LeftHandRing1
								{
									OFFSET 11.514786 -0.013176 -3.003090
									CHANNELS 3 Xrotation Yrotation Zrotation
									JOINT LeftHandRing2
									{
										OFFSET 3.053307 0.000000 0.000000
										CHANNELS 3 Xrotation Yrotation Zrotation
										JOINT LeftHandRing3
										{
											OFFSET 3.295807 0.000000 0.000000
											CHANNELS 3 Xrotation Yrotation Zrotation
											End Site
											{
												OFFSET -1.281006 3.013344 0.375733
											}
										}
									}
								}
								JOINT LeftHandPinky1
								{
									OFFSET 10.518692 -0.960396 -5.730441
									CHANNELS 3 Xrotation Yrotation Zrotation
									JOINT LeftHandPinky2
									{
										OFFSET 2.861649 0.000000 0.000000
										CHANNELS 3 Xrotation Yrotation Zrotation
										JOINT LeftHandPinky3
										{
											OFFSET 2.863380 0.000000 0.000000
											CHANNELS 3 Xrotation Yrotation Zrotation
											End Site
											{
												OFFSET -0.843597 2.711159 0.369971
											}
										}
									}
								}
							}
							JOINT LSleeve
							{
								OFFSET 6.676277 -0.344902 -1.011730
								CHANNELS 3 Xrotation Yrotation Zrotation
								End Site
								{
									OFFSET 0.000000 14.885353 0.000000
								}
							}
						}
					}
				}
				JOINT RightShoulder
				{
					OFFSET -6.197800 13.665199 -4.064700
					CHANNELS 3 Xrotation Yrotation Zrotation
					JOINT RightArm
					{
						OFFSET -7.778100 -0.187103 -1.709300
						CHANNELS 3 Xrotation Yrotation Zrotation
						JOINT RightForeArm
						{
							OFFSET -22.049376 0.000000 0.000000
							CHANNELS 3 Xrotation Yrotation Zrotation
							JOINT RightHand
							{
								OFFSET -23.009392 0.000000 0.000000
								CHANNELS 3 Xrotation Yrotation Zrotation
								JOINT RightHandThumb1
								{
									OFFSET -3.507191 -2.063065 3.133727
									CHANNELS 3 Xrotation Yrotation Zrotation
									JOINT RightHandThumb2
									{
										OFFSET -3.101337 -1.790558 1.790558
										CHANNELS 3 Xrotation Yrotation Zrotation
										JOINT RightHandThumb3
										{
											OFFSET -3.058640 -1.765907 1.765906
											CHANNELS 3 Xrotation Yrotation Zrotation
											End Site
											{
												OFFSET 0.415260 3.926476 -0.049563
											}
										}
									}
								}
								JOINT RightHandIndex1
								{
									OFFSET -11.334419 -0.901459 3.706815
									CHANNELS 3 Xrotation Yrotation Zrotation
									JOINT RightHandIndex2
									{
										OFFSET -3.283112 0.000000 0.000000
										CHANNELS 3 Xrotation Yrotation Zrotation
										JOINT RightHandIndex3
										{
											OFFSET -3.323853 0.000000 0.000000
											CHANNELS 3 Xrotation Yrotation Zrotation
											End Site
											{
												OFFSET 1.135597 3.097809 0.402452
											}
										}
									}
								}
								JOINT RightHandMiddle1
								{
									OFFSET -11.335861 0.000000 0.000000
									CHANNELS 3 Xrotation Yrotation Zrotation
									JOINT RightHandMiddle2
									{
										OFFSET -3.410492 0.000000 0.000000
										CHANNELS 3 Xrotation Yrotation Zrotation
										JOINT RightHandMiddle3
										{
											OFFSET -3.312172 0.000000 0.000000
											CHANNELS 3 Xrotation Yrotation Zrotation
											End Site
											{
												OFFSET 1.150200 3.080154 0.400270
											}
										}
									}
								}
								JOINT RightHandRing1
								{
									OFFSET -11.514786 -0.013176 -3.003090
									CHANNELS 3 Xrotation Yrotation Zrotation
									JOINT RightHandRing2
									{
										OFFSET -3.053307 0.000000 0.000000
										CHANNELS 3 Xrotation Yrotation Zrotation
										JOINT RightHandRing3
										{
											OFFSET -3.295807 0.000000 0.000000
											CHANNELS 3 Xrotation Yrotation Zrotation
											End Site
											{
												OFFSET 1.281006 3.013344 0.375733
											}
										}
									}
								}
								JOINT RightHandPinky1
								{
									OFFSET -10.518692 -0.960396 -5.730441
									CHANNELS 3 Xrotation Yrotation Zrotation
									JOINT RightHandPinky2
									{
										OFFSET -2.861649 0.000000 0.000000
										CHANNELS 3 Xrotation Yrotation Zrotation
										JOINT RightHandPinky3
										{
											OFFSET -2.863380 0.000000 0.000000
											CHANNELS 3 Xrotation Yrotation Zrotation
											End Site
											{
												OFFSET 0.843597 2.711159 0.369971
											}
										}
									}
								}
							}
							JOINT RSleeve
							{
								OFFSET -6.676277 -0.344902 -1.011730
								CHANNELS 3 Xrotation Yrotation Zrotation
								End Site
								{
									OFFSET 0.000000 14.885353 0.000000
								}
							}
						}
					}
				}
				JOINT Backpack
				{
					OFFSET 0.000000 -2.471497 36.677502
					CHANNELS 3 Xrotation Yrotation Zrotation
					End Site
					{
						OFFSET 0.000000 20.427315 0.000000
					}
				}
				JOINT Hood
				{
					OFFSET 0.000000 18.754097 -10.431000
					CHANNELS 3 Xrotation Yrotation Zrotation
					JOINT Hood1
					{
						OFFSET 0.000000 -5.011002 -7.685901
						CHANNELS 3 Xrotation Yrotation Zrotation
						End Site
						{
							OFFSET 0.000000 9.175140 0.000000
						}
					}
				}
				JOINT LHoodieString
				{
					OFFSET 5.250500 16.397697 3.089900
					CHANNELS 3 Xrotation Yrotation Zrotation
					JOINT LHoodieString1
					{
						OFFSET 0.257700 -6.364304 3.694600
						CHANNELS 3 Xrotation Yrotation Zrotation
						JOINT LHoodieString2
						{
							OFFSET 0.000000 -9.643799 2.679100
							CHANNELS 3 Xrotation Yrotation Zrotation
							End Site
							{
								OFFSET 0.000000 10.009018 0.000000
							}
						}
					}
				}
				JOINT RHoodieString
				{
					OFFSET -5.250500 16.397697 3.089900
					CHANNELS 3 Xrotation Yrotation Zrotation
					JOINT RHoodieString1
					{
						OFFSET -0.257700 -6.364304 3.694600
						CHANNELS 3 Xrotation Yrotation Zrotation
						JOINT RHoodieString2
						{
							OFFSET 0.000000 -9.643799 2.679100
							CHANNELS 3 Xrotation Yrotation Zrotation
							End Site
							{
								OFFSET 0.000000 10.009018 0.000000
							}
						}
					}
				}
			}
			JOINT LBackpack_Strap
			{
				OFFSET 15.223200 -7.719803 -6.610900
				CHANNELS 3 Xrotation Yrotation Zrotation
				End Site
				{
					OFFSET 0.000000 16.040596 0.000000
				}
			}
			JOINT RBackpack_Strap
			{
				OFFSET -15.223000 -7.719803 -6.610900
				CHANNELS 3 Xrotation Yrotation Zrotation
				End Site
				{
					OFFSET 0.000000 16.040596 0.000000
				}
			}
		}
	}
	JOINT BoyFacialAnim_Joint
	{
		OFFSET 1.000000 -82.208099 -1.550900
		CHANNELS 3 Xrotation Yrotation Zrotation
		End Site
		{
			OFFSET 0.000000 30.012791 0.000000
		}
	}
}
MOTION
Frames: 5
Frame Time: 0.033333
12.190678 73.629219 3.090522 148.018081 -65.124693 152.664386 -0.000001 0.000000 0.000000 -55.464442 12.966061 18.258631 56.948553 5.513261 8.654232 -4.780901 0.842576 -2.952284 -0.000001 0.000000 -0.000001 -0.000001 0.000000 -0.000000 -0.000000 -0.000000 -0.000001 -56.727815 -14.232150 -15.634878 56.756304 -8.984009 -7.350387 -14.292153 -0.192842 1.504815 0.000000 0.000002 -0.000000 0.000000 0.000002 -0.000000 0.000001 0.000001 0.000000 12.505588 -0.495814 1.833417 9.677906 -0.972467 0.482931 9.682632 -0.917800 0.478577 -0.444433 -2.929015 -1.852295 -49.193983 -15.632957 -2.711537 -0.000000 -0.000003 -0.000000 -0.000000 -0.000003 -0.000000 -0.000000 -0.000003 -0.000000 0.476916 2.135618 -4.521337 -21.443136 -25.757168 -61.435871 -0.000083 -82.834922 -0.000071 33.595532 12.078763 13.672616 -1.540036 3.690185 6.142358 3.939056 7.948703 0.746802 0.000001 0.000001 0.000001 -0.000004 -0.000003 -0.000006 0.000006 -0.000010 -0.000075 -0.000001 0.000001 -0.000003 0.000007 -0.001936 0.015973 -0.000009 0.001949 -0.015981 -0.000001 -0.000002 0.000002 -0.000001 -0.000005 -0.000005 -0.000005 0.000004 0.000004 -0.000000 0.000000 -0.000004 -0.018083 4.054255 0.511068 -0.018097 -4.054250 -0.511061 -0.000000 0.000002 0.000002 -0.000000 -0.000001 0.000003 1.892050 6.187179 7.253681 -4.609777 29.651033 42.015229 0.000360 80.823172 -0.000337 16.295411 8.864174 -35.230898 -1.849261 -3.581796 -6.586129 4.637204 -8.634126 -0.225392 -0.000001 0.000001 0.000004 -0.000001 -0.000009 -0.000005 -0.000004 0.000013 0.000013 0.000001 -0.000000 0.000000 0.000003 -0.000009 0.000004 0.000002 -0.000014 0.000017 0.000004 -0.000001 -0.000000 -0.000007 -0.000006 -0.000000 0.000002 0.000003 0.000011 -0.000001 0.000000 -0.000001 -0.000002 -0.000003 -0.000003 0.000008 -0.000002 -0.000004 -0.000001 -0.000001 0.000002 0.000001 0.000004 -0.000003 0.000001 0.000000 -0.000001 0.000001 0.000000 -0.000001 0.000001 0.000000 -0.000001 0.000001 0.000000 -0.000001 0.000001 0.000000 -0.000001 0.000000 -0.000001 0.000001 0.000001 0.000000 -0.000001 0.000001 0.000000 -0.000001 0.000000 -0.000001 0.000001 0.000000 -0.000001 -0.000000 0.000000 -0.000001 -0.000000 -0.000001 0.000000 0.000000 
11.545998 73.689148 2.992873 150.251772 -63.791733 155.415408 -0.000000 0.000000 0.000000 -55.019189 12.798548 18.058154 50.831917 4.615585 8.997401 -3.555180 0.223131 -3.532979 0.000000 0.000000 -0.000001 0.000000 0.000000 -0.000000 -0.000000 0.000000 0.000001 -56.133329 -13.070911 -15.479770 56.932676 -8.204173 -7.088234 -14.606546 -0.186169 1.492388 0.000000 0.000000 0.000001 0.000000 0.000000 0.000001 0.000001 -0.000002 -0.000000 12.635541 -0.167722 1.552652 9.774597 -0.654549 0.358638 9.778326 -0.582882 0.349653 -0.567099 -2.723775 -1.838990 -49.419683 -14.464295 -2.705127 -0.000000 -0.000002 -0.000000 -0.000000 -0.000002 -0.000000 -0.000000 -0.000002 -0.000000 0.475136 2.153763 -4.520501 -21.683066 -25.484332 -61.689176 0.000218 -82.668204 0.000268 33.711744 12.840587 14.231316 -1.540036 3.690186 6.142357 3.939055 7.948702 0.746802 0.000000 0.000001 -0.000000 -0.000004 -0.000004 -0.000006 0.000004 -0.000010 -0.000078 0.000001 -0.000002 -0.000004 0.000007 -0.001938 0.015973 -0.000008 0.001945 -0.015980 0.000000 -0.000001 -0.000000 -0.000000 -0.000007 -0.000003 -0.000002 0.000006 0.000004 0.000001 -0.000003 -0.000002 -0.018080 4.054254 0.511068 -0.018092 -4.054249 -0.511056 -0.000000 -0.000001 -0.000000 -0.000002 0.000001 0.000000 1.904855 6.261690 7.206383 -4.605950 29.844628 41.244753 0.000081 80.798297 -0.000075 15.848071 7.833571 -35.614440 -1.849258 -3.581794 -6.586130 4.637196 -8.634128 -0.225393 0.000001 -0.000000 0.000001 -0.000006 -0.000009 -0.000003 -0.000001 0.000009 0.000012 -0.000003 0.000001 0.000002 -0.000002 -0.000011 0.000004 0.000001 -0.000015 0.000019 0.000000 0.000001 -0.000000 -0.000009 -0.000006 -0.000000 -0.000002 0.000001 0.000011 -0.000004 -0.000001 -0.000003 -0.000007 -0.000003 -0.000003 0.000004 -0.000003 -0.000004 0.000001 -0.000001 0.000000 -0.000001 0.000000 -0.000001 0.000003 -0.000000 -0.000001 0.000003 -0.000000 -0.000001 0.000003 -0.000000 -0.000001 0.000003 -0.000000 -0.000001 0.000003 -0.000000 -0.000001 0.000001 0.000000 -0.000000 0.000003 -0.000000 -0.000001 0.000003 -0.000000 -0.000001 0.000001 0.000000 -0.000000 -0.000001 0.000001 0.000001 -0.000001 0.000001 0.000001 -0.000000 0.000000 0.000000 
10.815295 73.703346 3.057574 152.544270 -62.310655 158.127800 -0.000000 0.000000 0.000001 -54.298225 12.735012 18.053833 45.075321 1.921253 9.051076 -1.349817 0.154512 -3.900174 0.000000 -0.000000 -0.000001 0.000000 -0.000000 -0.000001 -0.000000 -0.000000 0.000000 -55.611714 -12.173515 -15.389690 57.033507 -7.041160 -7.212016 -14.782988 -0.234454 1.776796 -0.000000 0.000001 0.000001 -0.000000 0.000001 0.000001 -0.000001 -0.000001 -0.000001 12.742934 0.191881 1.312057 9.856640 -0.323577 0.242922 9.858136 -0.233950 0.228744 -0.608417 -2.537218 -1.786564 -49.629141 -13.290598 -2.815886 -0.000000 -0.000002 0.000000 -0.000000 -0.000002 0.000000 -0.000000 -0.000002 0.000000 0.475362 2.210410 -4.691813 -21.771105 -25.103273 -61.805747 -0.000278 -82.513637 -0.000276 33.821355 13.740615 14.882796 -1.540037 3.690191 6.142360 3.939054 7.948699 0.746799 0.000001 0.000001 -0.000000 -0.000002 -0.000003 -0.000002 0.000006 -0.000012 -0.000072 0.000001 0.000001 -0.000004 0.000005 -0.001934 0.015976 -0.000007 0.001946 -0.015982 -0.000001 0.000000 0.000002 -0.000002 -0.000004 -0.000001 -0.000004 0.000006 0.000004 -0.000000 -0.000000 -0.000002 -0.018082 4.054255 0.511072 -0.018094 -4.054248 -0.511058 0.000001 0.000001 0.000002 -0.000000 0.000004 0.000003 1.922161 6.346716 7.063878 -4.624491 30.088185 40.554856 0.000140 80.788475 -0.000144 15.174307 6.961203 -36.311464 -1.849262 -3.581796 -6.586129 4.637199 -8.634132 -0.225393 -0.000001 0.000001 0.000001 -0.000004 -0.000008 -0.000005 -0.000007 0.000011 0.000009 -0.000000 0.000001 0.000002 0.000003 -0.000009 0.000004 -0.000000 -0.000015 0.000019 0.000006 0.000001 -0.000002 -0.000007 -0.000005 0.000002 -0.000000 0.000006 0.000012 -0.000000 0.000002 0.000002 -0.000005 -0.000002 -0.000003 0.000007 -0.000000 -0.000005 0.000003 -0.000002 -0.000002 0.000001 -0.000002 0.000001 0.000002 -0.000000 0.000001 0.000002 -0.000000 0.000001 0.000002 -0.000000 0.000001 0.000002 -0.000000 0.000001 0.000002 -0.000000 0.000001 -0.000000 0.000000 -0.000001 0.000002 -0.000000 0.000001 0.000002 -0.000000 0.000001 -0.000000 0.000000 -0.000001 0.000001 -0.000000 0.000000 0.000001 -0.000000 0.000000 -0.000000 0.000000 0.000001 
9.916380 73.625916 3.297890 154.668555 -60.646404 160.465159 -0.000000 0.000000 -0.000000 -53.758688 12.382303 18.255111 41.414340 -1.201830 8.922707 -0.828572 0.210822 -4.866376 0.000000 -0.000000 -0.000000 0.000000 -0.000000 0.000000 0.000000 0.000001 0.000001 -55.188820 -11.348816 -15.437547 57.259402 -5.570659 -7.272052 -14.982778 -0.297876 2.119309 -0.000000 -0.000002 0.000000 -0.000000 -0.000002 0.000000 -0.000000 0.000001 0.000000 12.824344 0.587734 1.203873 9.920572 0.002121 0.175055 9.919137 0.106620 0.156185 -0.584194 -2.344862 -1.816278 -49.803550 -12.085046 -2.988174 -0.000001 0.000000 0.000000 -0.000001 0.000000 0.000000 -0.000001 0.000000 0.000000 0.481667 2.290195 -5.076852 -21.681083 -24.677719 -61.781848 -0.000233 -82.483427 -0.000220 33.778311 14.445645 15.298210 -1.540037 3.690185 6.142355 3.939051 7.948700 0.746801 -0.000000 0.000000 0.000001 -0.000003 -0.000006 -0.000004 0.000003 -0.000010 -0.000077 0.000002 -0.000001 -0.000004 0.000005 -0.001939 0.015976 -0.000007 0.001945 -0.015982 -0.000000 -0.000001 0.000002 -0.000000 -0.000008 -0.000004 -0.000003 0.000001 0.000005 -0.000001 0.000002 -0.000000 -0.018080 4.054251 0.511069 -0.018094 -4.054247 -0.511061 0.000000 -0.000001 -0.000000 0.000000 -0.000001 0.000002 1.938760 6.403849 6.798019 -4.728207 30.262710 39.940966 0.000234 80.825139 -0.000230 14.498383 6.680773 -37.277878 -1.849260 -3.581793 -6.586129 4.637197 -8.634126 -0.225390 0.000002 0.000001 0.000001 -0.000005 -0.000007 -0.000005 -0.000000 0.000012 0.000011 -0.000001 0.000003 0.000006 -0.000002 -0.000008 0.000004 -0.000001 -0.000014 0.000019 0.000005 0.000001 -0.000000 -0.000012 -0.000005 -0.000000 0.000001 0.000003 0.000015 -0.000006 -0.000001 0.000004 -0.000007 -0.000001 -0.000001 0.000002 0.000000 -0.000003 0.000003 0.000000 0.000000 0.000001 0.000000 -0.000001 0.000003 0.000000 -0.000001 0.000003 0.000000 -0.000001 0.000003 0.000000 -0.000001 0.000003 0.000000 -0.000001 0.000003 0.000000 0.000000 0.000003 -0.000001 0.000003 0.000003 0.000000 -0.000001 0.000003 0.000000 0.000000 0.000003 -0.000001 0.000003 -0.000002 -0.000001 -0.000000 -0.000002 -0.000001 -0.000000 -0.000000 0.000000 -0.000000 
8.867214 73.495918 3.697234 156.738607 -58.863991 162.603964 -0.000000 0.000000 0.000001 -53.475504 11.968760 18.771460 39.477322 -4.959980 8.748893 0.049545 0.356506 -7.078901 0.000000 0.000000 0.000001 0.000000 0.000000 0.000001 -0.000000 0.000001 0.000000 -54.692340 -10.468324 -15.633403 57.468358 -3.995751 -7.218911 -15.200991 -0.383994 2.553871 -0.000000 -0.000002 0.000001 -0.000000 -0.000002 0.000001 0.000001 -0.000001 -0.000000 12.889594 0.999217 1.141493 9.965890 0.321217 0.121819 9.960695 0.439403 0.097944 -0.592438 -2.156821 -1.794313 -49.789043 -10.977705 -3.031458 -0.000000 -0.000002 -0.000000 -0.000000 -0.000002 -0.000000 -0.000000 -0.000002 -0.000000 0.483896 2.331153 -5.269321 -21.607134 -24.078123 -61.940117 -0.000505 -82.509559 -0.000492 33.868610 14.773288 15.400320 -1.540037 3.690184 6.142360 3.939055 7.948703 0.746803 -0.000000 0.000001 0.000002 -0.000002 -0.000006 -0.000002 0.000003 -0.000010 -0.000077 -0.000001 0.000001 -0.000002 0.000005 -0.001938 0.015977 -0.000007 0.001946 -0.015978 -0.000001 0.000001 0.000000 -0.000001 -0.000009 -0.000002 -0.000003 0.000001 0.000003 -0.000001 -0.000002 0.000003 -0.018082 4.054251 0.511070 -0.018094 -4.054249 -0.511063 -0.000001 0.000001 0.000002 0.000001 0.000000 0.000004 1.942609 6.401458 6.658120 -4.661825 30.656491 39.053167 0.000057 80.861681 -0.000054 13.919114 6.600324 -38.370859 -1.849256 -3.581792 -6.586128 4.637197 -8.634129 -0.225394 0.000001 0.000001 0.000001 0.000001 -0.000008 -0.000000 -0.000001 0.000011 0.000011 -0.000003 -0.000000 0.000000 0.000001 -0.000006 0.000003 -0.000002 -0.000015 0.000020 -0.000000 0.000001 -0.000002 -0.000006 -0.000002 0.000002 0.000000 0.000005 0.000015 0.000002 0.000000 0.000002 -0.000002 -0.000001 -0.000001 0.000005 -0.000002 -0.000004 -0.000003 -0.000001 0.000000 -0.000000 -0.000000 -0.000001 -0.000003 -0.000001 0.000001 -0.000003 -0.000001 0.000001 -0.000003 -0.000001 0.000001 -0.000003 -0.000001 0.000001 -0.000003 -0.000001 0.000001 -0.000001 0.000000 -0.000001 -0.000003 -0.000001 0.000001 -0.000003 -0.000001 0.000001 -0.000001 0.000000 -0.000001 -0.000002 0.000000 -0.000000 -0.000002 0.000000 -0.000000 -0.000000 0.000000 0.000001 
